<svg id="Layer_1" enable-background="new 0 0 256 256" height="512" viewBox="0 0 256 256" width="512" xmlns="http://www.w3.org/2000/svg"><path d="m80.82 248.417-73.237-73.237c-4.778-4.778-4.778-12.524 0-17.302l137.608-137.607c4.778-4.778 12.524-4.778 17.302 0l73.236 73.236c4.778 4.778 4.778 12.524 0 17.302l-137.608 137.608c-4.777 4.777-12.524 4.777-17.301 0z" fill="#f4efed"/><path d="m235.729 93.508-5.767-5.767c4.778 4.778 4.778 12.524 0 17.302l-137.608 137.607c-4.778 4.778-12.524 4.778-17.302 0l5.767 5.767c4.778 4.778 12.524 4.778 17.302 0l137.608-137.607c4.778-4.779 4.778-12.525 0-17.302z" fill="#d6d1cf"/><path d="m162.492 20.271 5.767 5.767c-4.778-4.778-12.524-4.778-17.302 0l-137.606 137.608c-4.778 4.778-4.778 12.524 0 17.302l-5.767-5.767c-4.778-4.778-4.778-12.524 0-17.302l137.607-137.608c4.778-4.778 12.524-4.777 17.301 0z" fill="#fff"/><path d="m89.471 254c-3.802 0-7.377-1.481-10.065-4.169l-73.237-73.237c-5.55-5.55-5.55-14.58 0-20.129l137.607-137.608c5.549-5.55 14.581-5.55 20.13 0l73.236 73.236c2.688 2.688 4.17 6.263 4.17 10.065s-1.481 7.377-4.17 10.065l-137.607 137.608c-2.688 2.688-6.263 4.169-10.064 4.169zm-7.238-6.998c1.934 1.933 4.504 2.998 7.237 2.998s5.304-1.064 7.236-2.998l137.607-137.607c1.934-1.933 2.998-4.503 2.998-7.237 0-2.733-1.064-5.304-2.998-7.237l-73.236-73.236c-3.99-3.99-10.481-3.99-14.474 0l-137.606 137.608c-3.99 3.99-3.99 10.483 0 14.473z" fill="#690589"/><path d="m93.507 235.729-73.236-73.236c-4.778-4.778-4.778-12.524 0-17.302l137.608-137.608c4.778-4.778 12.524-4.778 17.302 0l73.236 73.236c4.778 4.778 4.778 12.524 0 17.302l-137.608 137.608c-4.777 4.778-12.524 4.778-17.302 0z" fill="#ff4397"/><path d="m248.417 80.82-5.767-5.767c4.778 4.778 4.778 12.524 0 17.302l-137.608 137.607c-4.778 4.778-12.524 4.778-17.302 0l5.767 5.767c4.778 4.778 12.524 4.778 17.302 0l137.608-137.608c4.778-4.777 4.777-12.524 0-17.301z" fill="#e12579"/><path d="m175.18 7.583 5.767 5.767c-4.778-4.778-12.524-4.778-17.302 0l-137.607 137.608c-4.778 4.778-4.778 12.524 0 17.302l-5.767-5.767c-4.778-4.778-4.778-12.524 0-17.302l137.608-137.608c4.777-4.777 12.524-4.777 17.301 0z" fill="#ff61b5"/><path d="m248.417 80.82-73.237-73.237c-4.778-4.778-12.524-4.778-17.302 0l-69.842 69.843 90.538 90.538 69.843-69.843c4.777-4.777 4.777-12.524 0-17.301z" fill="#526faa"/><path d="m248.417 80.82-5.767-5.767c4.778 4.778 4.778 12.524 0 17.302l-69.843 69.843 5.767 5.767 69.843-69.843c4.778-4.778 4.777-12.525 0-17.302z" fill="#34518c"/><path d="m175.18 7.583 5.767 5.767c-4.778-4.778-12.524-4.778-17.302 0l-69.842 69.843-5.767-5.767 69.843-69.843c4.777-4.777 12.524-4.777 17.301 0z" fill="#708dc8"/><g fill="#690589"><path d="m102.158 241.305c-3.646 0-7.29-1.387-10.064-4.162l-73.236-73.237c-2.688-2.688-4.17-6.262-4.17-10.064s1.481-7.376 4.17-10.065l137.607-137.608c2.688-2.688 6.263-4.169 10.064-4.169s7.377 1.481 10.065 4.169l73.236 73.236c5.55 5.55 5.55 14.58 0 20.129l-137.606 137.609c-2.775 2.774-6.421 4.162-10.066 4.162zm-7.236-6.99c3.99 3.99 10.481 3.99 14.474 0l137.607-137.608c3.99-3.99 3.99-10.482 0-14.473l-73.236-73.236c-1.934-1.933-4.504-2.998-7.238-2.998s-5.304 1.064-7.236 2.998l-137.607 137.607c-1.934 1.933-2.998 4.503-2.998 7.237s1.064 5.303 2.998 7.236z"/><path d="m178.574 169.964c-.512 0-1.023-.195-1.414-.586l-90.538-90.538c-.375-.375-.586-.884-.586-1.414s.211-1.039.586-1.414l69.843-69.843c2.688-2.688 6.263-4.169 10.064-4.169s7.377 1.481 10.065 4.169l73.236 73.236c5.55 5.55 5.55 14.58 0 20.129l-69.843 69.843c-.389.392-.901.587-1.413.587zm-87.71-92.538 87.71 87.709 68.429-68.428c3.99-3.99 3.99-10.483 0-14.473l-73.236-73.236c-1.934-1.933-4.504-2.998-7.238-2.998s-5.304 1.064-7.236 2.998z"/><path d="m141.742 38.058c-.512 0-1.023-.195-1.414-.586-.781-.781-.781-2.047 0-2.828l8.699-8.7c.781-.781 2.047-.781 2.828 0s.781 2.047 0 2.828l-8.699 8.7c-.39.391-.902.586-1.414.586z"/></g></svg>